{
  "title": "Blow-Up (1966) (Michelangelo Antonioni) (DVDrip)",
  "uid": 5491593,
  "size": 733593600,
  "categoryP": "video",
  "categoryS": "movies",
  "magnet": "?xt=urn:btih:8ec25a4a4018257a3471ac33cc4e56b88ff219c3&amp;dn=Blow-Up+%281966%29+%28Michelangelo+Antonioni%29+%28DVDrip%29&amp;tr=udp%3A%2F%2Ftracker.openbittorrent.com%3A80&amp;tr=udp%3A%2F%2Fopen.demonii.com%3A1337&amp;tr=udp%3A%2F%2Ftracker.coppersurfer.tk%3A6969&amp;tr=udp%3A%2F%2Fexodus.desync.com%3A6969",
  "seeders": 55,
  "leechers": 1,
  "uploader": "Kuthumi",
  "files": -1,
  "time": 1271056720,
  "description": " &lt;a href=&quot;http://www.imdb.com/title/tt0060176/&quot; rel=&quot;nofollow&quot; target=&quot;_NEW&quot;&gt;http://www.imdb.com/title/tt0060176/&lt;/a&gt;\n\naka:\nBlow-up (1966)\nBlow up (1966)\n\nA successful mod photographer in London frolics in fashion, pop music, marijuana and easy sex, but feels his life is boring and despairing. Then he accidentally captures on film the commission of a murder. \n\nThis was Antonioni's first film in English. It was considered one of the major films of the 60's through 80's, when several where themed around similar plots about photography, surveillance and conspiracy. Some of these were\n\nBlow Out (1981) with John Travolta,  &lt;a href=&quot;\nhttp://www.imdb.com/title/tt0082085/&quot; rel=&quot;nofollow&quot; target=&quot;_NEW&quot;&gt;\nhttp://www.imdb.com/title/tt0082085/&lt;/a&gt;\n\nand\nThe Conversation (1974) with Gene Hackman &lt;a href=&quot;\nhttp://www.imdb.com/title/tt0071360/&quot; rel=&quot;nofollow&quot; target=&quot;_NEW&quot;&gt;\nhttp://www.imdb.com/title/tt0071360/&lt;/a&gt;\n\n\nThis is not my rip, I found it on the net and thought this classic should be found here. Quality is surprisingly good for such an old film.\n\nColor Widescreen DVDrip XviD 560x320, original mono sound.\n\nMediaInfo analysis:\nFormat/Info                      : Audio Video Interleave\nFile size                        : 700 MiB\nDuration                         : 1h 46mn\nOveral bit rate                  : 917 Kbps\nWriting application              : VirtualDubMod 1.5.4.1 (build 2178/release)\nWriting library                  : VirtualDubMod build 2178/release\nIAS1                             : English\n\nVideo\nFormat                           : MPEG-4 Visual\nFormat profile                   : Streaming Video@L1\nFormat settings, BVOP            : Yes\nFormat settings, QPel            : No\nFormat settings, GMC             : No warppoints\nFormat settings, Matrix          : Custom\nCodec ID                         : XVID\nCodec ID/Hint                    : XviD\nDuration                         : 1h 46mn\nBit rate                         : 843 Kbps\nWidth                            : 560 pixels\nHeight                           : 320 pixels\nDisplay aspect ratio             : 16/9\nFrame rate                       : 25.000 fps\nResolution                       : 8 bits\nColorimetry                      : 4:2:0\nScan type                        : Progressive\nBits/(Pixel*Frame)               : 0.188\nStream size                      : 643 MiB\nWriting library                  : XviD 0039 build=2005.09.25 (UTC 2005-09-25)\n\nAudio\nFormat                           : MPEG Audio\nFormat version                   : Version 1\nFormat profile                   : Layer 3\nCodec ID                         : 55\nCodec ID/Hint                    : MP3\nDuration                         : 1h 46mn\nBit rate mode                    : Variable\nBit rate                         : 60.7 Kbps\nMinimum bit rate                 : 64.0 Kbps\nChannel(s)                       : 1 channel\nSampling rate                    : 48.0 KHz\nResolution                       : 16 bits\nStream size                      : 46.3 MiB\nWriting library                  : LAME3.96r\nEncoding settings                : ABR\n\nWith thanks to the original ripper and uploader.\n",
  "parsed": {
    "xt": "urn:btih:8ec25a4a4018257a3471ac33cc4e56b88ff219c3",
    "dn": "Blow-Up (1966) (Michelangelo Antonioni) (DVDrip)",
    "tr": [
      "udp://exodus.desync.com:6969",
      "udp://open.demonii.com:1337",
      "udp://tracker.coppersurfer.tk:6969",
      "udp://tracker.openbittorrent.com:80"
    ],
    "infoHash": "8ec25a4a4018257a3471ac33cc4e56b88ff219c3",
    "infoHashBuffer": {
      "type": "Buffer",
      "data": [
        142,
        194,
        90,
        74,
        64,
        24,
        37,
        122,
        52,
        113,
        172,
        51,
        204,
        78,
        86,
        184,
        143,
        242,
        25,
        195
      ]
    },
    "name": "Blow-Up (1966) (Michelangelo Antonioni) (DVDrip)",
    "announce": [
      "udp://exodus.desync.com:6969",
      "udp://open.demonii.com:1337",
      "udp://tracker.coppersurfer.tk:6969",
      "udp://tracker.openbittorrent.com:80"
    ],
    "urlList": []
  },
  "previous": 46,
  "peers": 26,
  "last_updated": "2016-12-27T06:46:56.084Z"
}